<svg width="255" height="255" viewBox="0 0 255 255" fill="none" xmlns="http://www.w3.org/2000/svg">
<path d="M191.25 85C191.25 90.6359 189.011 96.0409 185.026 100.026C181.041 104.011 175.636 106.25 170 106.25C164.364 106.25 158.959 104.011 154.974 100.026C150.989 96.0409 148.75 90.6359 148.75 85C148.75 79.3641 150.989 73.9591 154.974 69.974C158.959 65.9888 164.364 63.75 170 63.75C175.636 63.75 181.041 65.9888 185.026 69.974C189.011 73.9591 191.25 79.3641 191.25 85Z" fill="#AD1457"/>
<path fill-rule="evenodd" clip-rule="evenodd" d="M126.894 13.2812H128.106C152.639 13.2812 171.859 13.2813 186.862 15.3C202.204 17.3613 214.317 21.675 223.826 31.1738C233.336 40.6831 237.639 52.7956 239.7 68.1488C241.719 83.1406 241.719 102.361 241.719 126.894V127.829C241.719 148.113 241.719 164.709 240.614 178.224C239.509 191.824 237.246 203.161 232.167 212.596C229.936 216.75 227.173 220.479 223.826 223.826C214.317 233.336 202.204 237.639 186.851 239.7C171.859 241.719 152.639 241.719 128.106 241.719H126.894C102.361 241.719 83.1406 241.719 68.1381 239.7C52.7956 237.639 40.6831 233.325 31.1738 223.826C22.7481 215.401 18.3919 204.914 16.0863 191.888C13.8019 179.106 13.3875 163.2 13.3025 143.459C13.2812 138.433 13.2812 133.121 13.2812 127.511V126.894C13.2812 102.361 13.2813 83.1406 15.3 68.1381C17.3613 52.7956 21.675 40.6831 31.1738 31.1738C40.6831 21.6644 52.7956 17.3613 68.1488 15.3C83.1406 13.2813 102.361 13.2812 126.894 13.2812ZM70.2631 31.0888C56.6844 32.9163 48.4925 36.4013 42.4469 42.4469C36.3906 48.5031 32.9163 56.6844 31.0888 70.2738C29.24 84.0863 29.2188 102.234 29.2188 127.5V136.468L39.8544 127.149C44.5208 123.067 50.5646 120.911 56.7612 121.118C62.9578 121.325 68.8441 123.88 73.2275 128.265L118.809 173.846C122.346 177.383 127.017 179.558 132 179.99C136.983 180.421 141.959 179.081 146.051 176.205L149.218 173.974C155.122 169.825 162.259 167.802 169.462 168.237C176.665 168.671 183.507 171.536 188.87 176.364L218.939 203.426C221.978 197.073 223.773 188.721 224.729 176.938C225.771 164.135 225.781 148.176 225.781 127.5C225.781 102.234 225.76 84.0863 223.911 70.2738C222.084 56.6844 218.599 48.4925 212.553 42.4363C206.497 36.3906 198.316 32.9163 184.726 31.0888C170.914 29.24 152.766 29.2188 127.5 29.2188C102.234 29.2188 84.0756 29.24 70.2631 31.0888Z" fill="#AD1457"/>
</svg>
